<?xml version="1.0" encoding="UTF-8"?><svg id="Capa_1" xmlns="http://www.w3.org/2000/svg" viewBox="0 0 132.65 156.44"><defs><style>.cls-1{fill:#ef8d38;}</style></defs><path id="ALIEN" class="cls-1" d="M101.24,38.4c-1.13-1.07-1.31-2.81-.42-4.08l4.21-6.04c.58-.83,1.5-1.32,2.51-1.44,9.31-1.12,9.02-16.59-1.3-16.44-5.67-.16-9.64,5.91-7.83,10.97.35.98.13,2.07-.46,2.93l-3.27,4.69c-1.1,1.59-3.21,2.06-4.92,1.16-7.14-3.77-15.27-5.9-23.91-5.9-9.14,0-17.71,2.38-25.14,6.57-1.06.6-2.4.28-3.1-.72l-4.41-6.34c-.59-.85-.81-1.95-.46-2.93,1.81-5.05-2.16-11.13-7.83-10.97-10.32-.14-10.61,15.32-1.3,16.45,1.01.12,1.93.6,2.51,1.44l4.04,5.8c1.21,1.73,1.04,4.1-.45,5.58-9.37,9.29-15.18,22.19-15.18,36.43,0,28.35,36.43,69.7,51.32,69.54,16.04-.18,51.32-41.19,51.32-69.54,0-14.62-6.12-27.81-15.93-37.16ZM35.5,92.47c-4.35-4.15-11.11-17.2-7.18-21.76,3.92-4.55,17.78,1.45,22.19,5.54,7.96,7.4,9.62,20.09,7.43,22.7-2.04,2.41-16.35-.66-22.44-6.48ZM66.02,121.61c-6.63,0-12-3.32-12-5.11s5.37-1.36,12-1.36,12-.43,12,1.36-5.37,5.11-12,5.11ZM73.47,98.95c-2.2-2.61-.53-15.3,7.43-22.7,4.4-4.09,18.26-10.09,22.19-5.54,3.93,4.56-2.83,17.61-7.18,21.76-6.1,5.82-20.41,8.89-22.44,6.48Z"/></svg>