<?xml version="1.0" encoding="UTF-8"?><svg id="Capa_1" xmlns="http://www.w3.org/2000/svg" viewBox="0 0 166.7 158.96"><defs><style>.cls-1{fill:#4f91ce;}</style></defs><g id="astronauta"><path class="cls-1" d="M141.19,126.71c-14.46,14.88-34.71,24.13-57.11,24.13s-40.63-8.35-54.92-21.94c3.74-6.23,8.88-11.91,15.52-16.7,2.2-1.59,5.26-.92,6.62,1.44,9.96,17.27,59.42,17.23,69.59.17,1.42-2.39,4.54-3.06,6.74-1.36,5.27,4.05,9.85,8.86,13.56,14.26Z"/><path class="cls-1" d="M117.78,109.25c-.06.34-.13.68-.23,1.03-2.37,7.82-15.84,13.82-32.09,13.82s-29.39-5.86-31.98-13.55c-.15-.43-.26-.86-.33-1.3.6-.36,1.22-.7,1.84-1.03.58.79,1.27,1.56,2.08,2.29,5.54,5.01,16.18,7.02,28.4,7.02s22.76-1.98,28.32-6.95c.84-.75,1.56-1.54,2.16-2.36.62.33,1.24.67,1.84,1.03Z"/><path class="cls-1" d="M137.84,80c10.84-.28,12.15-8.96,12.51-17.62.38-9.15-.82-18.32-12.37-18.73,3.4,9.29.43,34.01-.13,36.35Z"/><path class="cls-1" d="M133.4,42.42c-7.18-19.68-26.07-33.73-48.23-33.73s-40.8,13.87-48.08,33.36c-2.09,5.59-3.24,11.64-3.24,17.96,0,2.78.23,5.51.66,8.17.95,5.97,2.92,11.6,5.75,16.69,8.76,15.78,25.58,26.47,44.91,26.47s35.99-10.58,44.78-26.25c2.9-5.15,4.93-10.85,5.89-16.91.43-2.66.65-5.39.65-8.17,0-6.18-1.09-12.11-3.09-17.59ZM127.49,69.97c0,12.13-9.83,21.96-21.96,21.96h-39.83c-12.12,0-21.95-9.83-21.95-21.96v-13.79c0-12.12,6.89-26.55,41.87-27.57,26.54-.78,41.87,15.45,41.87,27.57v13.79Z"/><path class="cls-1" d="M31.29,80c-10.84-.28-12.15-8.96-12.51-17.62-.38-9.15.82-18.32,12.37-18.73-3.4,9.29-.43,34.01.13,36.35Z"/><path class="cls-1" d="M69.61,39.51c-3.81,1.83-7.29,4.47-10.05,7.67-1.41,1.63-2.69,3.39-3.74,5.27-1.23,2.19-2.13,4.54-3.02,6.88-.48,1.26.53,2.74,1.75,3.08,1.41.39,2.59-.48,3.08-1.75,1.41-3.71,3.16-7.32,5.66-10.16s5.35-5,8.86-6.68c1.22-.58,1.54-2.32.9-3.42-.73-1.24-2.2-1.48-3.42-.9h0Z"/></g></svg>