<?xml version="1.0" encoding="UTF-8"?><svg id="Capa_1" xmlns="http://www.w3.org/2000/svg" xmlns:xlink="http://www.w3.org/1999/xlink" viewBox="0 0 369.78 287.8"><defs><style>.cls-1{fill:url(#Degradado_sin_nombre_13);}.cls-1,.cls-2,.cls-3,.cls-4,.cls-5,.cls-6{stroke:#1d1d1b;stroke-miterlimit:10;}.cls-1,.cls-3,.cls-4,.cls-5,.cls-6{stroke-width:3px;}.cls-2{fill:#efcfcd;stroke-width:2px;}.cls-7{fill:#1d1d1b;}.cls-8,.cls-3{fill:#fff;}.cls-9{fill:#22244b;}.cls-10{fill:#dabbc6;}.cls-4{fill:#474666;}.cls-11{fill:#4f506e;}.cls-5{fill:url(#Degradado_sin_nombre_13-2);}.cls-6{fill:url(#Degradado_sin_nombre_36);}</style><linearGradient id="Degradado_sin_nombre_13" x1="58.53" y1="43.9" x2="81.14" y2="43.9" gradientUnits="userSpaceOnUse"><stop offset="0" stop-color="#d4b700"/><stop offset="1" stop-color="#7f6114"/></linearGradient><linearGradient id="Degradado_sin_nombre_36" x1="69.76" y1="117.94" x2="80.36" y2="169.74" gradientUnits="userSpaceOnUse"><stop offset="0" stop-color="#c78fbf"/><stop offset=".01" stop-color="#c788ba"/><stop offset=".08" stop-color="#c86eab"/><stop offset=".14" stop-color="#c95a9f"/><stop offset=".22" stop-color="#ca4b97"/><stop offset=".32" stop-color="#ca4392"/><stop offset=".48" stop-color="#cb4191"/><stop offset=".64" stop-color="#ca408e"/><stop offset=".73" stop-color="#c93c86"/><stop offset=".8" stop-color="#c83778"/><stop offset=".87" stop-color="#c52f64"/><stop offset=".93" stop-color="#c2254a"/><stop offset=".99" stop-color="#bf192b"/><stop offset="1" stop-color="#be1622"/></linearGradient><linearGradient id="Degradado_sin_nombre_13-2" x1="138.88" y1="34.94" x2="130.99" y2="61.28" xlink:href="#Degradado_sin_nombre_13"/></defs><g id="vaca"><g id="torso"><g id="PatasB"><g id="pataI"><path class="cls-8" d="M129.85,171.2c.54,8.75,3.48,25.43.25,36-8.66,28.37-1.62,48.91-19.03,48.91-20.74,0-6.99-19.37-14.87-47.74-3.16-11.37-6.2-16.6-3.13-25.24"/><path class="cls-7" d="M128.4,171.59c.41,6.43,1.35,12.82,1.64,19.26.16,3.55.17,7.12-.22,10.65s-1.51,6.87-2.4,10.31c-1.76,6.79-2.8,13.72-3.65,20.67-.62,5.07-1,10.33-2.55,15.22-1.01,3.2-2.81,6.43-6.29,7.33-2.09.54-4.42.45-6.53.14-1.76-.26-3.53-.8-4.9-1.97-2.68-2.27-3.07-6.13-3.2-9.42-.21-5.15.19-10.31.1-15.46-.12-6.95-.94-13.86-2.82-20.57-1.02-3.66-2.27-7.26-3.25-10.93-.79-2.97-1.33-6.03-.97-9.1.19-1.64.61-3.23,1.15-4.79.29-.82-2.58-.46-2.88.42-1.06,3.04-1.51,6.19-1.16,9.4.38,3.47,1.51,6.82,2.53,10.14,2.29,7.41,3.97,14.77,4.37,22.53.3,5.76-.07,11.5-.02,17.25.03,3.61.13,7.83,2.57,10.74,2.71,3.23,7.78,3.63,11.69,3.41,4.14-.24,8.27-1.74,10.59-5.35,2.49-3.87,3.08-8.77,3.67-13.22.89-6.62,1.55-13.26,2.83-19.82.77-3.97,1.8-7.85,2.92-11.73.94-3.26,1.26-6.67,1.37-10.04.23-7.24-.65-14.46-1.35-21.65-.14-1.39-.26-2.78-.35-4.17-.05-.78-2.96-.22-2.9.78h0Z"/><path class="cls-9" d="M110.18,255.63c-14.24-1.12-9.98-18.33-9.98-18.33l10.78.72,12.07,1.08s.83,17.61-12.87,16.53Z"/></g><g id="pataBackI"><path class="cls-8" d="M249.94,172.62c.54,8.75,5.84,21.71,2.61,32.28-1.83,5.99-4.45,12.17-5.35,17.61-3.26,19.7-1.3,35.61-16.05,35.02-20.72-.82-6.99-19.37-14.87-47.74-1.16-4.18-12.75-8.42-16.95-15.59-7.22-12.32-7.81-28.58-5.87-34.04"/><path class="cls-7" d="M248.49,173.01c.56,8.3,3.64,16.23,3.65,24.61,0,4.82-1.52,9.15-3.08,13.65s-2.91,8.79-3.61,13.43c-1.09,7.24-1.38,14.67-3.07,21.81-1.1,4.66-3.25,9.81-8.66,10.26-4.18.35-9.65-.52-11.81-4.6s-1.62-9.28-1.52-13.65c.16-7.01.19-14-.9-20.95-.32-2.07-.74-4.13-1.24-6.17-.33-1.35-.59-2.59-1.48-3.69-1.78-2.2-4.45-3.72-6.74-5.32-2.87-2-5.81-4.1-8.03-6.84-2.53-3.12-4.1-7.23-5.32-11.02-2.17-6.75-3.41-14.37-2.48-21.46.14-1.06.34-2.11.69-3.13.28-.82-2.58-.46-2.88.42-.84,2.45-.95,5.17-.96,7.73,0,3.83.43,7.67,1.21,11.42.89,4.29,2.25,8.49,4.19,12.42,1.71,3.47,3.9,6.2,6.92,8.62,2.7,2.17,5.68,3.95,8.4,6.09.95.75,1.98,1.57,2.63,2.6.93,1.47,1.13,3.6,1.48,5.28,1.58,7.47,1.81,15.07,1.65,22.68-.1,4.8-.8,10.41,1.11,14.97s6.56,5.76,11.01,6.03c5.67.35,11.03-1.45,13.73-6.73,1.35-2.65,2-5.63,2.5-8.54.64-3.72,1.02-7.49,1.46-11.24.52-4.38.96-8.83,2.11-13.09,1.32-4.91,3.35-9.6,4.7-14.5,2.38-8.66-.41-17.75-2-26.29-.35-1.85-.64-3.71-.77-5.6-.05-.78-2.97-.22-2.9.78h0Z"/><path class="cls-9" d="M230.28,257.04c-14.24-1.12-9.98-18.33-9.98-18.33l10.78.72,12.07,1.08s.83,17.61-12.87,16.53Z"/></g></g><path id="ubres" class="cls-2" d="M258.25,201.27c0,6.38-3.82,12.12-9.94,16.16-1.09.72,2.95,5.28-1.02,7.22-4.11,2.01-5.7-3.79-7.45-3.23-2.22.71-4.57,1.24-7.03,1.57-1.68.23.35,5.96-4.69,6.35-5.86.46-4.47-6.06-6.06-6.24-1.5-.17-2.96-.41-4.38-.72s-1.31,5.87-6.23,4.56c-4.21-1.12-1.17-6.92-2.71-7.69-7.93-4.01-13.09-10.57-13.09-17.98,0-12.21,14.02-22.11,31.3-22.11s31.3,9.9,31.3,22.11Z"/><g id="colas"><path id="cola" class="cls-3" d="M286.62,80.35l13.11,28.37s7.85-8.37,13.5,10.27c3.62,11.93-.82,12.05-.1,19.37s3.91,12.62,3.91,12.62l4.37-1.66s-3.74-2.88-2.02-11.51c2.66-13.34,5.58-23.51-.1-35.93-7.22-15.82-32.67-21.52-32.67-21.52Z"/><path id="rabo" class="cls-4" d="M339.25,167.13c0,7.09,1.69,14.79,2.79,19.06.35,1.37-1.03,2.53-2.32,1.95-6.35-2.86-20.22-9.87-25.32-18.57-6.7-11.44,1.43-19.94,6.46-21.52,9.98-3.13,18.39,8.54,18.39,19.08Z"/></g><path id="cuerpo" class="cls-3" d="M303.25,128.3c0,47.54-46.16,74.54-108.76,84.91-34.86,5.77-81.62-1.27-100.67-21.65-16.51-17.66-30.7-43.95-30.7-66.32,0-28.38,32.71-55.11,62.71-67.36,20.54-8.39,42.67,1.61,66.68-.95,19.04-2.03,41.11-11.13,55.83-6.51,34.2,10.75,54.91,44.63,54.91,77.87Z"/><g id="PatasF"><g id="pataD"><g id="pierna"><path class="cls-8" d="M167.66,181.31c.54,8.75,3.48,25.43.25,36-8.66,28.37-1.62,48.91-19.03,48.91-20.74,0-6.99-19.37-14.87-47.74-3.16-11.37-6.2-16.6-3.13-25.24"/><path class="cls-7" d="M166.21,181.7c.41,6.43,1.35,12.82,1.64,19.26.16,3.55.17,7.12-.22,10.65s-1.51,6.87-2.4,10.31c-1.76,6.79-2.8,13.72-3.65,20.67-.62,5.07-1,10.33-2.55,15.22-1.01,3.2-2.81,6.43-6.29,7.33-2.09.54-4.42.45-6.53.14-1.76-.26-3.53-.8-4.9-1.97-2.68-2.27-3.07-6.13-3.2-9.42-.21-5.15.19-10.31.1-15.46-.12-6.95-.94-13.86-2.82-20.57-1.02-3.66-2.27-7.26-3.25-10.93-.79-2.97-1.33-6.03-.97-9.1.19-1.64.61-3.23,1.15-4.79.29-.82-2.58-.46-2.88.42-1.06,3.04-1.51,6.19-1.16,9.4.38,3.47,1.51,6.82,2.53,10.14,2.29,7.41,3.97,14.77,4.37,22.53.3,5.76-.07,11.5-.02,17.25.03,3.61.13,7.83,2.57,10.74,2.71,3.23,7.78,3.63,11.69,3.41,4.14-.24,8.27-1.74,10.59-5.35,2.49-3.87,3.08-8.77,3.67-13.22.89-6.62,1.55-13.26,2.83-19.82.77-3.97,1.8-7.85,2.92-11.73.94-3.26,1.26-6.67,1.37-10.04.23-7.24-.65-14.46-1.35-21.65-.14-1.39-.26-2.78-.35-4.17-.05-.78-2.96-.22-2.9.78h0Z"/></g><path id="pesuna" class="cls-9" d="M148,265.73c-14.24-1.12-9.98-18.33-9.98-18.33l10.78.72,12.07,1.08s.83,17.61-12.87,16.53Z"/></g><g id="pataBackD"><g id="pierna-2"><path class="cls-8" d="M299.47,137.81c.2,3.25,5.76,9.69,5.35,21-.7,19.17-7.88,46.44-9.91,53.09-1.83,5.99-4.45,12.17-5.35,17.61-3.26,19.7-1.3,35.61-16.05,35.02-20.72-.82-6.99-19.37-14.87-47.74-1.16-4.18-12.75-8.42-16.95-15.59-7.22-12.32-7.81-28.58-5.87-34.04"/><path class="cls-7" d="M298.02,138.2c.09,1.14.61,2.23,1.06,3.26.7,1.58,1.43,3.15,2.05,4.77,1.81,4.75,2.43,9.61,2.15,14.68-.56,10-2.35,19.93-4.44,29.71-1.51,7.04-3.17,14.09-5.23,20.99-1.61,5.39-3.85,10.6-5.1,16.09-1.13,4.97-1.54,10.14-2.13,15.19-.48,4.09-.93,8.24-2.06,12.2-.8,2.81-2.06,5.86-4.6,7.53s-6.31,1.36-9.23.76c-2.42-.5-4.72-1.66-6.03-3.84s-1.59-4.86-1.71-7.33c-.17-3.5.02-7.01.07-10.51.07-4.37,0-8.74-.45-13.09-.26-2.5-.64-4.99-1.14-7.46-.4-1.93-.63-4.31-1.76-5.97-.87-1.28-2.16-2.26-3.39-3.18-1.64-1.22-3.35-2.35-5.02-3.54-3.77-2.7-6.95-5.58-9.09-9.76-4.21-8.25-6.4-18.39-5.52-27.66.13-1.38.34-2.78.8-4.1.28-.82-2.58-.46-2.88.42-1.12,3.25-1.07,7-.89,10.39.26,5,1.18,9.99,2.73,14.74s3.58,9.53,7.18,13.01c3.15,3.06,6.97,5.24,10.43,7.9,1.15.88,2.52,1.89,3.16,3.23.43.9.6,1.97.83,2.93.34,1.41.64,2.84.89,4.27.85,4.79,1.21,9.64,1.25,14.5.04,3.91-.15,7.81-.16,11.71,0,2.82.04,5.79.97,8.48,2.07,6,9.17,7.18,14.77,6.65,3.28-.31,6.47-1.63,8.61-4.2s3.18-6.23,3.84-9.58c.89-4.5,1.29-9.08,1.84-13.62.68-5.69,1.55-11.2,3.36-16.66,1.39-4.19,2.9-8.34,4.08-12.6.98-3.53,1.88-7.08,2.73-10.64,2.36-9.9,4.38-19.92,5.54-30.03.57-5,1.17-10.2.43-15.2-.62-4.25-2.25-8.09-3.97-11.98-.46-1.03-.97-2.12-1.06-3.26-.07-.79-2.98-.21-2.9.78h0Z"/></g><path id="pesuna-2" class="cls-9" d="M272.62,264.04c-14.24-1.12-9.98-18.33-9.98-18.33l10.78.72,12.07,1.08s.83,17.61-12.87,16.53Z"/><path id="manchaPata" class="cls-11" d="M277.71,140.84c-1.86,7.09,2.59,13.98,1.79,15.74-1.74,3.84-6.83,6.4-10.14,6.3-5.57.2-10.46-5.87-9.84-11.83.45-4.31,6.34-8.44,4.67-10.67-8.46-11.26-5.39-27.92,8.96-27.4,6.48-.21,13.48,4.99,13.5,12.79.02,10.56-7.57,9.87-8.94,15.07Z"/></g></g><g id="manchas"><path id="lomo" class="cls-11" d="M286.8,79.29c-4.8,9.28-15.34,15.66-26.44,15.92-4.5.1-8.55,2.57-10.69,6.52-12.05,22.34-47.9,14.58-50.09-10.3-.44-5.01-3.76-9.21-8.54-10.79-10.6-3.49-15.72-13.04-15.82-22.7,5.65.43,11.41.56,17.29-.07,19.04-2.02,41.11-11.13,55.82-6.5,16.04,5.05,29.11,15.16,38.47,27.92Z"/><path id="panza" class="cls-11" d="M226.2,153.6c-.83,1.86-10.49,13.07-18.96,13.28-7.59.18-14.12-10.55-14.12-10.55l-14.13-8.17c-8.38,2.24-22.99-21.78,6.81-24.17,7.26-.59,14.8,6.24,14.8,6.24,0,0,18.53-3.24,23.66,1.07,5.5,4.62,2.77,20.43,1.94,22.3Z"/><path id="cuello" class="cls-11" d="M117.37,182.67c0,6.86-4.79,12.87-11.94,16.18-4.02-2.48-7.54-5.26-10.42-8.34-6.22-6.66-12.12-14.55-17.05-22.99,4.11-2.34,9.22-3.74,14.74-3.74,13.62,0,24.67,8.46,24.67,18.89Z"/></g></g><g id="cabeza"><g id="orejaI"><path id="orejaI-2" class="cls-3" d="M72.81,53.25c-2.92-4.61-14.11-2.41-25.32,4.36-20.01,12.09-14.73,21.04-14.73,21.04,0,0,14.26,2.66,25.32-4.36,11.06-7.01,17.66-16.44,14.73-21.04Z"/><path id="sobra" class="cls-11" d="M33.7,77.22c4.07.89,15.2,1.57,24.91-5.09,10.45-7.15,16.74-16.65,12.54-18.41,0,0-12.49,3.37-19.91,8.63s-17.54,14.87-17.54,14.87Z"/></g><path id="cuernoI" class="cls-1" d="M58.55,47.03c.39,8.8,6.96,15.76,14.79,12.27s11.43-10.9,2.82-18.33c-4.23-3.65-7.85-8.89-10.01-12.37-.92-1.49-3.14-1.28-3.75.36-1.71,4.58-4.11,12.17-3.85,18.08Z"/><path id="cara" class="cls-3" d="M169.9,88.44s-15.93,2.48-27.88-5.7c-.48-.33-.95-.66-1.41-.99.51,1.9.98,3.85,1.42,5.85.76,3.45,8.52,25.4,4.5,40.69-8.22,31.3-32.49,40.86-51.6,43.01-7.05,2.52-14.95,3.69-22.92,3-23.76-2.05-45.38-20.42-43.85-38.18.38-4.48,2.15-8.22,4.95-11.28,3.29-10.4,13.31-24.44,15.4-31.77,8.65-30.35,23.87-52.82,49.58-52.82,14.43,0,24.56,5.97,31.79,16.34,5.44-1.68,15.41,1.06,24.64,7.91,19.73,14.64,15.38,23.94,15.38,23.94Z"/><path id="ocico" class="cls-6" d="M120.51,144.17c-1.53,17.76-24.74,32.18-48.5,30.13-23.76-2.05-45.38-20.42-43.85-38.19s24.76-23.96,48.52-21.91c23.76,2.05,45.36,12.21,43.83,29.97Z"/><path class="cls-10" d="M168.67,87.1s-3.63,2.07-15.91-3.26c-10.62-4.61-13.78-9.4-12.78-11.67,1-2.28,6.85-2.67,16.51,3.05,8.94,5.3,12.18,11.88,12.18,11.88Z"/><path class="cls-11" d="M81.9,82.84c1.74,8.36-6.31,17.01-14.95,15.3-1.76-.35-3.62.08-4.94,1.29-4.25,3.89-10.83,5.53-16.46,3.62,4.69-11.81,8.79-24.59,14.61-35.36,5.99-11.08,13.78-20.02,24.29-23.57.31,1.11.45,2.3.44,3.5-.04,2.97.36,5.97,1.61,8.67,2.85,6.16,1.68,14.14-2.74,19.24-1.73,2-2.4,4.72-1.86,7.31Z"/><path id="cuernoD" class="cls-5" d="M145.29,49.51c-.39,8.8-6.96,15.76-14.79,12.27-7.82-3.5-11.43-10.9-2.82-18.33,4.23-3.65,7.85-8.89,10.01-12.37.92-1.49,3.14-1.28,3.75.36,1.71,4.58,4.11,12.17,3.85,18.08Z"/></g></g></svg>