<?xml version="1.0" encoding="UTF-8"?><svg id="Capa_1" xmlns="http://www.w3.org/2000/svg" viewBox="0 0 1712.06 474.47"><defs><style>.cls-1{fill:#1d1f3f;}</style></defs><path id="montes" class="cls-1" d="M1656.89,85.1c-1.64-.52-3.25-1.14-4.83-1.82l-27.85-12.14c-15.9-6.93-34.22-5.45-48.8,3.95l-79.02,50.94c-4.06,2.62-8.48,4.66-13.1,6.06l-29.4,8.88c-2.33-17.81-7.22-28.98-10.1-33.86-2.68-4.54-8.85,15.69-10.81,40.17-.13,1.59-.24,3.21-.33,4.83-.27-1.55-.55-3.04-.86-4.47-2.66-12.72-6.46-21-8.46-24.91-2.07-4.06-7.11,10.57-9.75,30.44l-121.16,40.39c-9.69,3.23-20.1,3.52-29.95.85l-129.06-58.23c-15.81-8.93-40.99-10.43-42.82-.71l-193.63,78.76c-9.64,2.78-19.89,2.72-29.49-.21l-38.79-11.81c-6.63-8.11-17.16-18.3-26.59-11.63l-152.93,39.31c-10.01,1.88-20.35.77-29.72-3.2l-228.39-96.52c-1.61-5.25-3.32-9.39-4.89-12.31-1.08-2.01-2.89,1.5-4.74,8.24l-104.2-44.04c-13.76-5.82-29.38-5.41-42.83,1.12l-76.97,37.4c-2.03-19.39-6.6-33.33-10.36-40.31-2.65-4.92-9.58,23.16-11.11,50.74l-3.01,1.47c-2.13-9.16-4.74-16.06-7.05-20.33-1.9-3.53-6.01,9.92-8.74,28L0,197.08v277.39h1712.06V102.87l-55.17-17.77Z"/></svg>