<?xml version="1.0" encoding="UTF-8"?><svg id="Capa_1" xmlns="http://www.w3.org/2000/svg" viewBox="0 0 230.09 230.74"><defs><style>.cls-1{fill:#bdcce4;}.cls-2{fill:#e9f2f4;}.cls-3{fill:#d6e9ec;}</style></defs><g id="luna"><circle class="cls-3" cx="117.63" cy="118.49" r="104.61"/><path class="cls-1" d="M215.43,121.98c-2.57,120.59-170.56,123.6-189.36,19.02-.4-2.22,2.77-3.06,3.56-.95,11.96,31.84,42.7,54.5,78.72,54.5,96.31-.06,109.59-131.35,33.28-161.89-2.14-.85-1.1-4.08,1.13-3.52,41.41,10.25,72.84,47.95,72.67,92.84Z"/><path id="luz" class="cls-2" d="M191.16,110.04c0,46.68-37.84,84.51-84.53,84.51S22.11,156.72,22.11,110.04,59.96,25.51,106.64,25.51s84.53,37.84,84.53,84.53Z"/><path class="cls-1" d="M177.12,111.9c0,8.47-6.87,15.33-15.33,15.33-1.88,0-3.69-.34-5.36-.96-.73,4.11-4.32,7.22-8.63,7.22-4.85,0-8.77-3.92-8.77-8.77,0-4.57,3.5-8.34,7.98-8.73-.36-1.3-.55-2.67-.55-4.09,0-8.46,6.86-15.32,15.33-15.32s15.33,6.86,15.33,15.32Z"/><path class="cls-1" d="M75.55,80.01c-.72,4.79-5.19,8.08-9.98,7.36-.89-.13-1.73-.4-2.5-.77-3.16,2.35-7.23,3.49-11.43,2.86-8.37-1.26-14.14-9.07-12.88-17.44,1.26-8.37,9.07-14.13,17.44-12.87,6.14.92,10.88,5.37,12.47,10.98,4.52.93,7.57,5.26,6.88,9.88Z"/><path class="cls-1" d="M64.22,105.35c0,4.84-3.93,8.77-8.77,8.77s-8.77-3.93-8.77-8.77c0-4.35,3.16-7.95,7.3-8.64.33-2.09,2.14-3.69,4.32-3.69,2.43,0,4.39,1.96,4.39,4.38,0,.81-.22,1.57-.6,2.22,1.33,1.53,2.13,3.53,2.13,5.73Z"/><circle class="cls-1" cx="64.22" cy="118.49" r="4.38"/><path class="cls-1" d="M129.93,159.05c-2.17,14.38-15.58,24.29-29.97,22.12-12.11-1.82-21.06-11.63-22.27-23.28-.8.01-1.61-.05-2.43-.17-8.37-1.26-14.13-9.07-12.87-17.44,1.26-8.37,9.07-14.14,17.44-12.88.61.09,1.22.22,1.8.39.45-1.94,2.18-3.38,4.26-3.38,1.17,0,2.24.46,3.02,1.21.73-.56,1.66-.9,2.66-.9,2.43,0,4.39,1.97,4.39,4.39,0,.32-.04.64-.11.94,3.74-1.21,7.81-1.59,11.96-.96,14.38,2.16,24.28,15.58,22.12,29.96Z"/><path class="cls-1" d="M46.34,160.7c.24.54.38,1.14.38,1.78,0,2.43-1.96,4.39-4.38,4.39s-4.38-1.96-4.38-4.39c0-.64.14-1.24.38-1.78-2.83-1.46-4.77-4.41-4.77-7.81,0-4.84,3.93-8.77,8.77-8.77s8.77,3.93,8.77,8.77c0,3.4-1.94,6.35-4.77,7.81Z"/></g></svg>