<?xml version="1.0" encoding="UTF-8"?><svg id="Capa_1" xmlns="http://www.w3.org/2000/svg" xmlns:xlink="http://www.w3.org/1999/xlink" viewBox="0 0 630.39 301.7"><defs><style>.cls-1{fill:#dadada;}.cls-2{fill:#95c11f;}.cls-2,.cls-3,.cls-4,.cls-5,.cls-6,.cls-7,.cls-8{stroke-miterlimit:10;}.cls-2,.cls-4,.cls-6,.cls-7,.cls-8{stroke-width:3px;}.cls-2,.cls-6,.cls-7,.cls-8{stroke:#1d1d1b;}.cls-9{fill:#6f7f9c;}.cls-10{fill:#fff;}.cls-3{fill:#44908f;stroke:#fff;stroke-width:2px;}.cls-4{fill:#ffed00;stroke:#ffed00;}.cls-5{stroke:#ededed;stroke-width:4px;}.cls-5,.cls-8{fill:#b4bfcf;}.cls-11{fill:#377775;}.cls-6{fill:#b2b2b2;}.cls-7{fill:url(#Degradado_sin_nombre_15);}</style><linearGradient id="Degradado_sin_nombre_15" x1="33.46" y1="192.16" x2="597.13" y2="192.16" gradientUnits="userSpaceOnUse"><stop offset="0" stop-color="#ffef26"/><stop offset=".03" stop-color="#dfe226"/><stop offset=".07" stop-color="#bdd426"/><stop offset=".11" stop-color="#a3c926"/><stop offset=".14" stop-color="#90c126"/><stop offset=".18" stop-color="#84bc26"/><stop offset=".23" stop-color="#81bb27"/><stop offset=".46" stop-color="#89cfe2"/><stop offset=".67" stop-color="#2e4c9b"/><stop offset=".85" stop-color="#a0509a"/><stop offset="1" stop-color="#e3312d"/></linearGradient></defs><g id="ovni"><g id="cupula"><ellipse id="vidrio" class="cls-3" cx="315.16" cy="132.62" rx="135" ry="118.72"/><circle class="cls-11" cx="325.06" cy="143.75" r="125.85"/><path id="reflejo" class="cls-10" d="M397.92,50.52c.28,9.95-12.85,12.98-18.05,6.33-1.44-1.85-3.73-2.77-6.07-2.88-6.92-.31-13.1-6.17-12.97-13.52-.24-15.96,22.58-17.39,26.45-4.28.67,2.26,2.34,4.16,4.51,5.08,3.6,1.54,6.13,5.11,6.13,9.27Z"/></g><g id="down"><path id="downR" class="cls-8" d="M597.13,216.34c.12.75-25.37,19.99-93.58,34.87-18.34,3.99-39.34,9.37-62.16,14.55,17.31-20.32,28.32-44.97,30.49-71.75,48.4,5.22,91.09,12.89,125.25,22.33Z"/><path id="down-2" class="cls-8" d="M471.88,194.01c-2.17,26.78-13.18,51.43-30.49,71.75-38.23,8.67-81.58,16.76-126.09,16.82-42.46.05-86.07-8.57-126.29-17.55h-.01c-16.65-19.83-27.34-43.72-29.74-69.66,48.82-5.79,103.95-9.05,162.28-9.05,53.63,0,104.54,2.75,150.34,7.69Z"/><path id="downL" class="cls-8" d="M189,265.03c-19.59-4.37-38.37-8.83-55.83-12.41-65.11-13.36-99.71-32.09-99.71-32.63,33.33-10.3,76.33-18.76,125.8-24.62,2.4,25.94,13.09,49.83,29.74,69.66Z"/></g><g id="luces"><ellipse class="cls-4" cx="315.08" cy="203.83" rx="20.94" ry="8.45"/><ellipse class="cls-4" cx="431.37" cy="213.11" rx="8.45" ry="20.94" transform="translate(131.26 589.18) rotate(-77.7)"/><ellipse class="cls-4" cx="524.41" cy="229.14" rx="5.65" ry="17.02" transform="translate(188.82 692.71) rotate(-77.7)"/><ellipse class="cls-4" cx="208.87" cy="213.11" rx="20.94" ry="8.45" transform="translate(-25.56 28.49) rotate(-7.35)"/><ellipse class="cls-4" cx="112.58" cy="230.2" rx="15.2" ry="6.14" transform="translate(-28.54 16.3) rotate(-7.35)"/></g><g id="lineaCentral"><path id="lineaCentral-2" class="cls-7" d="M597.13,216.34c-66.47-18.38-165.28-30.02-275.59-30.02-117.45,0-221.85,13.2-288.08,33.67.67-8.4,3.51-16.58,8.28-24.44h0c66.48-19.07,167.14-31.22,279.8-31.22,104.68,0,199,10.49,265.16,27.27,1.3,1.85,2.48,3.71,3.55,5.59,3.53,6.21,5.86,12.61,6.88,19.15Z"/></g><g id="top"><path id="topR" class="cls-6" d="M586.7,191.6c-32.31-8.2-71.35-14.89-115.03-19.6-1.78-17.55-7.35-34.15-16-49.17,62.87,14.87,110.53,39.44,131.03,68.77Z"/><path id="reflejo-2" class="cls-1" d="M487.64,141.9c-1.6-1.93.22-4.77,2.64-4.13,7.91,2.1,22.31,7.24,45.54,19.83,17,9.21,28.22,17.43,34.82,22.89,1.67,1.39.16,4.06-1.89,3.34-8.59-3.03-22-7.18-35.78-9.21-15.67-2.3-26.15-3.16-32.52-3.45-2.94-.14-4.86-3.1-3.8-5.84.98-2.54,1.3-5.86-.44-9.78-2.52-5.66-5.82-10.33-8.56-13.65Z"/><path id="top-2" class="cls-6" d="M471.67,172c-45.74-4.92-96.58-7.67-150.13-7.67-58.35,0-113.48,3.26-162.31,9.06,1.61-18.07,7.24-35.15,16.12-50.56,41.29-9.77,89.15-15.36,140.16-15.36s98.86,5.58,140.16,15.36c8.65,15.02,14.22,31.62,16,49.17Z"/><path id="topL" class="cls-6" d="M175.35,122.83c-8.88,15.41-14.51,32.49-16.12,50.56-45.46,5.38-85.44,12.96-117.49,22.15,1.27-2.09,2.68-4.17,4.23-6.22,21.34-28.32,68.16-52,129.38-66.49Z"/></g><g id="aperturaTop"><path id="aperturaTop-2" class="cls-6" d="M164.23,127.57c-6.67,1.79,8.55-13.59,13.88-18.93,21.09-21.15,257.04-20.37,275.63-.49,7.77,8.3,20.53,20.73,11.8,19.31-11.52-1.87-80.25-11.93-150.03-11.95-73.13-.02-145.87,10.6-151.28,12.06Z"/><path id="luz" class="cls-10" d="M403.11,104.02l3.14,12.72,17.75,1.91c1.75.19,3.15-1.41,2.75-3.12l-3.23-13.61-16.96-1.83c-2.21-.24-3.97,1.78-3.44,3.93Z"/><path id="sombra" class="cls-9" d="M188.94,116.92c1.02,2.13,2.71,3.85,4.77,4.92,11.54-1.7,37.75-5.2,69.4-7.47,1.57-2.05,2.42-4.68,2.2-7.46-.45-5.69-5.21-10.01-10.82-10.01-.3,0-.58,0-.88.03l-40.52,3.22c-7.09,1.63-11.99,3.52-13.99,5.66-3.23,3.45-7.47,7.73-10.16,11.12Z"/></g><ellipse class="cls-8" cx="316.04" cy="254.16" rx="150.74" ry="28.59"/><path class="cls-5" d="M444.38,258.54c0,12.84-56.93,19.87-128.34,19.87s-130.25-7.03-130.25-19.87,57.89-23.24,129.3-23.24,129.3,10.41,129.3,23.24Z"/><path class="cls-2" d="M441.55,261.18c-6.89,6.51-55.71,14.19-125.51,14.19s-120.79-5.1-127.25-14.19c-7.27-10.22,56.58-22.72,126.38-22.72s135.51,14.1,126.38,22.72Z"/></g></svg>